<?xml version="1.0" encoding="UTF-8" standalone="no"?>
<!DOCTYPE svg PUBLIC "-//W3C//DTD SVG 1.1//EN"
 "http://www.w3.org/Graphics/SVG/1.1/DTD/svg11.dtd">
<!-- Generated by graphviz version 2.43.0 (0)
 -->
<!-- Title: dag&#45;combine1 input for foo: Pages: 1 -->
<svg width="588pt" height="1053pt"
 viewBox="0.00 0.00 587.50 1053.00" xmlns="http://www.w3.org/2000/svg" xmlns:xlink="http://www.w3.org/1999/xlink">
<g id="graph0" class="graph" transform="scale(1 1) rotate(0) translate(4 1049)">
<title>dag&#45;combine1 input for foo:</title>
<!-- Node0x562a0f19ff30 -->
<g id="node1" class="node">
<title>Node0x562a0f19ff30</title>
<path fill="#333333" stroke="#e6e6e6" d="M20.5,-975.5C20.5,-975.5 95.5,-975.5 95.5,-975.5 101.5,-975.5 107.5,-981.5 107.5,-987.5 107.5,-987.5 107.5,-1032.5 107.5,-1032.5 107.5,-1038.5 101.5,-1044.5 95.5,-1044.5 95.5,-1044.5 20.5,-1044.5 20.5,-1044.5 14.5,-1044.5 8.5,-1038.5 8.5,-1032.5 8.5,-1032.5 8.5,-987.5 8.5,-987.5 8.5,-981.5 14.5,-975.5 20.5,-975.5"/>
<text text-anchor="middle" x="58" y="-1029.3" font-family="Times,serif" font-size="14.00" fill="#e6e6e6">EntryToken</text>
<polyline fill="none" stroke="#e6e6e6" points="8.5,-1021.5 107.5,-1021.5 "/>
<text text-anchor="middle" x="58" y="-1006.3" font-family="Times,serif" font-size="14.00" fill="#e6e6e6">t0</text>
<polyline fill="none" stroke="#e6e6e6" points="8.5,-998.5 107.5,-998.5 "/>
<text text-anchor="middle" x="29.5" y="-983.3" font-family="Times,serif" font-size="14.00" fill="#e6e6e6">ch</text>
<polyline fill="none" stroke="#e6e6e6" points="50.5,-975.5 50.5,-998.5 "/>
<text text-anchor="middle" x="79" y="-983.3" font-family="Times,serif" font-size="14.00" fill="#e6e6e6">glue</text>
</g>
<!-- Node0x562a0f2211b0 -->
<g id="node2" class="node">
<title>Node0x562a0f2211b0</title>
<path fill="#333333" stroke="#e6e6e6" d="M138,-975.5C138,-975.5 218,-975.5 218,-975.5 224,-975.5 230,-981.5 230,-987.5 230,-987.5 230,-1032.5 230,-1032.5 230,-1038.5 224,-1044.5 218,-1044.5 218,-1044.5 138,-1044.5 138,-1044.5 132,-1044.5 126,-1038.5 126,-1032.5 126,-1032.5 126,-987.5 126,-987.5 126,-981.5 132,-975.5 138,-975.5"/>
<text text-anchor="middle" x="178" y="-1029.3" font-family="Times,serif" font-size="14.00" fill="#e6e6e6">Register %0</text>
<polyline fill="none" stroke="#e6e6e6" points="126,-1021.5 230,-1021.5 "/>
<text text-anchor="middle" x="178" y="-1006.3" font-family="Times,serif" font-size="14.00" fill="#e6e6e6">t1</text>
<polyline fill="none" stroke="#e6e6e6" points="126,-998.5 230,-998.5 "/>
<text text-anchor="middle" x="178" y="-983.3" font-family="Times,serif" font-size="14.00" fill="#e6e6e6">i32</text>
</g>
<!-- Node0x562a0f221220 -->
<g id="node3" class="node">
<title>Node0x562a0f221220</title>
<path fill="#333333" stroke="#e6e6e6" d="M40.5,-846.5C40.5,-846.5 135.5,-846.5 135.5,-846.5 141.5,-846.5 147.5,-852.5 147.5,-858.5 147.5,-858.5 147.5,-926.5 147.5,-926.5 147.5,-932.5 141.5,-938.5 135.5,-938.5 135.5,-938.5 40.5,-938.5 40.5,-938.5 34.5,-938.5 28.5,-932.5 28.5,-926.5 28.5,-926.5 28.5,-858.5 28.5,-858.5 28.5,-852.5 34.5,-846.5 40.5,-846.5"/>
<text text-anchor="middle" x="58" y="-923.3" font-family="Times,serif" font-size="14.00" fill="#e6e6e6">0</text>
<polyline fill="none" stroke="#e6e6e6" points="87.5,-915.5 87.5,-938.5 "/>
<text text-anchor="middle" x="117.5" y="-923.3" font-family="Times,serif" font-size="14.00" fill="#e6e6e6">1</text>
<polyline fill="none" stroke="#e6e6e6" points="28.5,-915.5 147.5,-915.5 "/>
<text text-anchor="middle" x="88" y="-900.3" font-family="Times,serif" font-size="14.00" fill="#e6e6e6">CopyFromReg</text>
<polyline fill="none" stroke="#e6e6e6" points="28.5,-892.5 147.5,-892.5 "/>
<text text-anchor="middle" x="88" y="-877.3" font-family="Times,serif" font-size="14.00" fill="#e6e6e6">t2</text>
<polyline fill="none" stroke="#e6e6e6" points="28.5,-869.5 147.5,-869.5 "/>
<text text-anchor="middle" x="59.5" y="-854.3" font-family="Times,serif" font-size="14.00" fill="#e6e6e6">i32</text>
<polyline fill="none" stroke="#e6e6e6" points="90.5,-846.5 90.5,-869.5 "/>
<text text-anchor="middle" x="119" y="-854.3" font-family="Times,serif" font-size="14.00" fill="#e6e6e6">ch</text>
</g>
<!-- Node0x562a0f221220&#45;&gt;Node0x562a0f19ff30 -->
<g id="edge1" class="edge">
<title>Node0x562a0f221220:s0&#45;&gt;Node0x562a0f19ff30:d0</title>
<path fill="none" stroke="red" stroke-dasharray="5,2" d="M58,-939C58,-955.37 39.58,-955.46 32.1,-965.22"/>
<polygon fill="red" stroke="red" points="28.69,-964.41 29,-975 35.36,-966.53 28.69,-964.41"/>
</g>
<!-- Node0x562a0f221220&#45;&gt;Node0x562a0f2211b0 -->
<g id="edge2" class="edge">
<title>Node0x562a0f221220:s1&#45;&gt;Node0x562a0f2211b0:d0</title>
<path fill="none" stroke="#e6e6e6" d="M149,-927.5C170.5,-927.5 129.73,-961.32 120.59,-977.96"/>
<polygon fill="#e6e6e6" stroke="#e6e6e6" points="117.47,-979.55 125,-987 123.76,-976.48 117.47,-979.55"/>
</g>
<!-- Node0x562a0f221290 -->
<g id="node4" class="node">
<title>Node0x562a0f221290</title>
<path fill="#333333" stroke="#e6e6e6" d="M348,-858C348,-858 428,-858 428,-858 434,-858 440,-864 440,-870 440,-870 440,-915 440,-915 440,-921 434,-927 428,-927 428,-927 348,-927 348,-927 342,-927 336,-921 336,-915 336,-915 336,-870 336,-870 336,-864 342,-858 348,-858"/>
<text text-anchor="middle" x="388" y="-911.8" font-family="Times,serif" font-size="14.00" fill="#e6e6e6">Register %1</text>
<polyline fill="none" stroke="#e6e6e6" points="336,-904 440,-904 "/>
<text text-anchor="middle" x="388" y="-888.8" font-family="Times,serif" font-size="14.00" fill="#e6e6e6">t3</text>
<polyline fill="none" stroke="#e6e6e6" points="336,-881 440,-881 "/>
<text text-anchor="middle" x="388" y="-865.8" font-family="Times,serif" font-size="14.00" fill="#e6e6e6">i32</text>
</g>
<!-- Node0x562a0f221300 -->
<g id="node5" class="node">
<title>Node0x562a0f221300</title>
<path fill="#333333" stroke="#e6e6e6" d="M290.5,-717.5C290.5,-717.5 385.5,-717.5 385.5,-717.5 391.5,-717.5 397.5,-723.5 397.5,-729.5 397.5,-729.5 397.5,-797.5 397.5,-797.5 397.5,-803.5 391.5,-809.5 385.5,-809.5 385.5,-809.5 290.5,-809.5 290.5,-809.5 284.5,-809.5 278.5,-803.5 278.5,-797.5 278.5,-797.5 278.5,-729.5 278.5,-729.5 278.5,-723.5 284.5,-717.5 290.5,-717.5"/>
<text text-anchor="middle" x="308" y="-794.3" font-family="Times,serif" font-size="14.00" fill="#e6e6e6">0</text>
<polyline fill="none" stroke="#e6e6e6" points="337.5,-786.5 337.5,-809.5 "/>
<text text-anchor="middle" x="367.5" y="-794.3" font-family="Times,serif" font-size="14.00" fill="#e6e6e6">1</text>
<polyline fill="none" stroke="#e6e6e6" points="278.5,-786.5 397.5,-786.5 "/>
<text text-anchor="middle" x="338" y="-771.3" font-family="Times,serif" font-size="14.00" fill="#e6e6e6">CopyFromReg</text>
<polyline fill="none" stroke="#e6e6e6" points="278.5,-763.5 397.5,-763.5 "/>
<text text-anchor="middle" x="338" y="-748.3" font-family="Times,serif" font-size="14.00" fill="#e6e6e6">t4</text>
<polyline fill="none" stroke="#e6e6e6" points="278.5,-740.5 397.5,-740.5 "/>
<text text-anchor="middle" x="309.5" y="-725.3" font-family="Times,serif" font-size="14.00" fill="#e6e6e6">i32</text>
<polyline fill="none" stroke="#e6e6e6" points="340.5,-717.5 340.5,-740.5 "/>
<text text-anchor="middle" x="369" y="-725.3" font-family="Times,serif" font-size="14.00" fill="#e6e6e6">ch</text>
</g>
<!-- Node0x562a0f221300&#45;&gt;Node0x562a0f19ff30 -->
<g id="edge3" class="edge">
<title>Node0x562a0f221300:s0&#45;&gt;Node0x562a0f19ff30:d0</title>
<path fill="none" stroke="red" stroke-dasharray="5,2" d="M308,-810C308,-867.95 330.15,-898.2 289,-939 250.25,-977.42 56.44,-924.41 31.62,-965.18"/>
<polygon fill="red" stroke="red" points="28.19,-964.44 29,-975 34.96,-966.24 28.19,-964.44"/>
</g>
<!-- Node0x562a0f221300&#45;&gt;Node0x562a0f221290 -->
<g id="edge4" class="edge">
<title>Node0x562a0f221300:s1&#45;&gt;Node0x562a0f221290:d0</title>
<path fill="none" stroke="#e6e6e6" d="M368,-810C368,-830.08 340.11,-849.73 330.23,-860.67"/>
<polygon fill="#e6e6e6" stroke="#e6e6e6" points="327.17,-862.36 335,-869.5 333.33,-859.04 327.17,-862.36"/>
</g>
<!-- Node0x562a0f221370 -->
<g id="node6" class="node">
<title>Node0x562a0f221370</title>
<path fill="#333333" stroke="#e6e6e6" d="M178,-858C178,-858 268,-858 268,-858 274,-858 280,-864 280,-870 280,-870 280,-915 280,-915 280,-921 274,-927 268,-927 268,-927 178,-927 178,-927 172,-927 166,-921 166,-915 166,-915 166,-870 166,-870 166,-864 172,-858 178,-858"/>
<text text-anchor="middle" x="223" y="-911.8" font-family="Times,serif" font-size="14.00" fill="#e6e6e6">Constant&lt;7&gt;</text>
<polyline fill="none" stroke="#e6e6e6" points="166,-904 280,-904 "/>
<text text-anchor="middle" x="223" y="-888.8" font-family="Times,serif" font-size="14.00" fill="#e6e6e6">t5</text>
<polyline fill="none" stroke="#e6e6e6" points="166,-881 280,-881 "/>
<text text-anchor="middle" x="223" y="-865.8" font-family="Times,serif" font-size="14.00" fill="#e6e6e6">i32</text>
</g>
<!-- Node0x562a0f2213e0 -->
<g id="node7" class="node">
<title>Node0x562a0f2213e0</title>
<path fill="#333333" stroke="#e6e6e6" d="M126,-717.5C126,-717.5 156,-717.5 156,-717.5 162,-717.5 168,-723.5 168,-729.5 168,-729.5 168,-797.5 168,-797.5 168,-803.5 162,-809.5 156,-809.5 156,-809.5 126,-809.5 126,-809.5 120,-809.5 114,-803.5 114,-797.5 114,-797.5 114,-729.5 114,-729.5 114,-723.5 120,-717.5 126,-717.5"/>
<text text-anchor="middle" x="127.5" y="-794.3" font-family="Times,serif" font-size="14.00" fill="#e6e6e6">0</text>
<polyline fill="none" stroke="#e6e6e6" points="141,-786.5 141,-809.5 "/>
<text text-anchor="middle" x="154.5" y="-794.3" font-family="Times,serif" font-size="14.00" fill="#e6e6e6">1</text>
<polyline fill="none" stroke="#e6e6e6" points="114,-786.5 168,-786.5 "/>
<text text-anchor="middle" x="141" y="-771.3" font-family="Times,serif" font-size="14.00" fill="#e6e6e6">mul</text>
<polyline fill="none" stroke="#e6e6e6" points="114,-763.5 168,-763.5 "/>
<text text-anchor="middle" x="141" y="-748.3" font-family="Times,serif" font-size="14.00" fill="#e6e6e6">t6</text>
<polyline fill="none" stroke="#e6e6e6" points="114,-740.5 168,-740.5 "/>
<text text-anchor="middle" x="141" y="-725.3" font-family="Times,serif" font-size="14.00" fill="#e6e6e6">i32</text>
</g>
<!-- Node0x562a0f2213e0&#45;&gt;Node0x562a0f221220 -->
<g id="edge5" class="edge">
<title>Node0x562a0f2213e0:s0&#45;&gt;Node0x562a0f221220:d0</title>
<path fill="none" stroke="#e6e6e6" d="M127,-810C127,-839.92 74.94,-818.86 61.92,-836.04"/>
<polygon fill="#e6e6e6" stroke="#e6e6e6" points="58.46,-835.42 59,-846 65.17,-837.39 58.46,-835.42"/>
</g>
<!-- Node0x562a0f2213e0&#45;&gt;Node0x562a0f221370 -->
<g id="edge6" class="edge">
<title>Node0x562a0f2213e0:s1&#45;&gt;Node0x562a0f221370:d0</title>
<path fill="none" stroke="#e6e6e6" d="M155,-810C155,-814.92 156.78,-844.7 160.38,-860.18"/>
<polygon fill="#e6e6e6" stroke="#e6e6e6" points="157.42,-862.1 165,-869.5 163.69,-858.99 157.42,-862.1"/>
</g>
<!-- Node0x562a0f221450 -->
<g id="node8" class="node">
<title>Node0x562a0f221450</title>
<path fill="#333333" stroke="#e6e6e6" d="M140,-588.5C140,-588.5 170,-588.5 170,-588.5 176,-588.5 182,-594.5 182,-600.5 182,-600.5 182,-668.5 182,-668.5 182,-674.5 176,-680.5 170,-680.5 170,-680.5 140,-680.5 140,-680.5 134,-680.5 128,-674.5 128,-668.5 128,-668.5 128,-600.5 128,-600.5 128,-594.5 134,-588.5 140,-588.5"/>
<text text-anchor="middle" x="141.5" y="-665.3" font-family="Times,serif" font-size="14.00" fill="#e6e6e6">0</text>
<polyline fill="none" stroke="#e6e6e6" points="155,-657.5 155,-680.5 "/>
<text text-anchor="middle" x="168.5" y="-665.3" font-family="Times,serif" font-size="14.00" fill="#e6e6e6">1</text>
<polyline fill="none" stroke="#e6e6e6" points="128,-657.5 182,-657.5 "/>
<text text-anchor="middle" x="155" y="-642.3" font-family="Times,serif" font-size="14.00" fill="#e6e6e6">add</text>
<polyline fill="none" stroke="#e6e6e6" points="128,-634.5 182,-634.5 "/>
<text text-anchor="middle" x="155" y="-619.3" font-family="Times,serif" font-size="14.00" fill="#e6e6e6">t7</text>
<polyline fill="none" stroke="#e6e6e6" points="128,-611.5 182,-611.5 "/>
<text text-anchor="middle" x="155" y="-596.3" font-family="Times,serif" font-size="14.00" fill="#e6e6e6">i32</text>
</g>
<!-- Node0x562a0f221450&#45;&gt;Node0x562a0f221300 -->
<g id="edge8" class="edge">
<title>Node0x562a0f221450:s1&#45;&gt;Node0x562a0f221300:d0</title>
<path fill="none" stroke="#e6e6e6" d="M183,-669.5C189.23,-669.5 186.38,-676.83 191,-681 220.77,-707.84 231.56,-725.43 266.9,-728.14"/>
<polygon fill="#e6e6e6" stroke="#e6e6e6" points="266.88,-731.64 277,-728.5 267.13,-724.64 266.88,-731.64"/>
</g>
<!-- Node0x562a0f221450&#45;&gt;Node0x562a0f2213e0 -->
<g id="edge7" class="edge">
<title>Node0x562a0f221450:s0&#45;&gt;Node0x562a0f2213e0:d0</title>
<path fill="none" stroke="#e6e6e6" d="M141,-681C141,-693 141,-698.25 141,-706.88"/>
<polygon fill="#e6e6e6" stroke="#e6e6e6" points="137.5,-707 141,-717 144.5,-707 137.5,-707"/>
</g>
<!-- Node0x562a0f2214c0 -->
<g id="node9" class="node">
<title>Node0x562a0f2214c0</title>
<path fill="#333333" stroke="#e6e6e6" d="M212.5,-600C212.5,-600 311.5,-600 311.5,-600 317.5,-600 323.5,-606 323.5,-612 323.5,-612 323.5,-657 323.5,-657 323.5,-663 317.5,-669 311.5,-669 311.5,-669 212.5,-669 212.5,-669 206.5,-669 200.5,-663 200.5,-657 200.5,-657 200.5,-612 200.5,-612 200.5,-606 206.5,-600 212.5,-600"/>
<text text-anchor="middle" x="262" y="-653.8" font-family="Times,serif" font-size="14.00" fill="#e6e6e6">Constant&lt;10&gt;</text>
<polyline fill="none" stroke="#e6e6e6" points="200.5,-646 323.5,-646 "/>
<text text-anchor="middle" x="262" y="-630.8" font-family="Times,serif" font-size="14.00" fill="#e6e6e6">t8</text>
<polyline fill="none" stroke="#e6e6e6" points="200.5,-623 323.5,-623 "/>
<text text-anchor="middle" x="262" y="-607.8" font-family="Times,serif" font-size="14.00" fill="#e6e6e6">i32</text>
</g>
<!-- Node0x562a0f221530 -->
<g id="node10" class="node">
<title>Node0x562a0f221530</title>
<path fill="#333333" stroke="#e6e6e6" d="M354,-600C354,-600 390,-600 390,-600 396,-600 402,-606 402,-612 402,-612 402,-657 402,-657 402,-663 396,-669 390,-669 390,-669 354,-669 354,-669 348,-669 342,-663 342,-657 342,-657 342,-612 342,-612 342,-606 348,-600 354,-600"/>
<text text-anchor="middle" x="372" y="-653.8" font-family="Times,serif" font-size="14.00" fill="#e6e6e6">setule</text>
<polyline fill="none" stroke="#e6e6e6" points="342,-646 402,-646 "/>
<text text-anchor="middle" x="372" y="-630.8" font-family="Times,serif" font-size="14.00" fill="#e6e6e6">t9</text>
<polyline fill="none" stroke="#e6e6e6" points="342,-623 402,-623 "/>
<text text-anchor="middle" x="372" y="-607.8" font-family="Times,serif" font-size="14.00" fill="#e6e6e6">ch</text>
</g>
<!-- Node0x562a0f2215a0 -->
<g id="node11" class="node">
<title>Node0x562a0f2215a0</title>
<path fill="#333333" stroke="#e6e6e6" d="M194,-459.5C194,-459.5 248,-459.5 248,-459.5 254,-459.5 260,-465.5 260,-471.5 260,-471.5 260,-539.5 260,-539.5 260,-545.5 254,-551.5 248,-551.5 248,-551.5 194,-551.5 194,-551.5 188,-551.5 182,-545.5 182,-539.5 182,-539.5 182,-471.5 182,-471.5 182,-465.5 188,-459.5 194,-459.5"/>
<text text-anchor="middle" x="195" y="-536.3" font-family="Times,serif" font-size="14.00" fill="#e6e6e6">0</text>
<polyline fill="none" stroke="#e6e6e6" points="208,-528.5 208,-551.5 "/>
<text text-anchor="middle" x="221" y="-536.3" font-family="Times,serif" font-size="14.00" fill="#e6e6e6">1</text>
<polyline fill="none" stroke="#e6e6e6" points="234,-528.5 234,-551.5 "/>
<text text-anchor="middle" x="247" y="-536.3" font-family="Times,serif" font-size="14.00" fill="#e6e6e6">2</text>
<polyline fill="none" stroke="#e6e6e6" points="182,-528.5 260,-528.5 "/>
<text text-anchor="middle" x="221" y="-513.3" font-family="Times,serif" font-size="14.00" fill="#e6e6e6">setcc</text>
<polyline fill="none" stroke="#e6e6e6" points="182,-505.5 260,-505.5 "/>
<text text-anchor="middle" x="221" y="-490.3" font-family="Times,serif" font-size="14.00" fill="#e6e6e6">t10</text>
<polyline fill="none" stroke="#e6e6e6" points="182,-482.5 260,-482.5 "/>
<text text-anchor="middle" x="221" y="-467.3" font-family="Times,serif" font-size="14.00" fill="#e6e6e6">i1</text>
</g>
<!-- Node0x562a0f2215a0&#45;&gt;Node0x562a0f221450 -->
<g id="edge9" class="edge">
<title>Node0x562a0f2215a0:s0&#45;&gt;Node0x562a0f221450:d0</title>
<path fill="none" stroke="#e6e6e6" d="M195,-552C195,-555.83 191.76,-577.76 187.94,-590.44"/>
<polygon fill="#e6e6e6" stroke="#e6e6e6" points="184.72,-589.04 183,-599.5 190.86,-592.4 184.72,-589.04"/>
</g>
<!-- Node0x562a0f2215a0&#45;&gt;Node0x562a0f2214c0 -->
<g id="edge10" class="edge">
<title>Node0x562a0f2215a0:s1&#45;&gt;Node0x562a0f2214c0:d0</title>
<path fill="none" stroke="#e6e6e6" d="M221,-552C221,-575.46 250.73,-572.71 259.56,-588.38"/>
<polygon fill="#e6e6e6" stroke="#e6e6e6" points="256.25,-589.6 262,-598.5 263.06,-587.96 256.25,-589.6"/>
</g>
<!-- Node0x562a0f2215a0&#45;&gt;Node0x562a0f221530 -->
<g id="edge11" class="edge">
<title>Node0x562a0f2215a0:s2&#45;&gt;Node0x562a0f221530:d0</title>
<path fill="none" stroke="red" stroke-dasharray="5,2" d="M261,-540.5C267.23,-540.5 264.41,-547.8 269,-552 292.79,-573.77 311.01,-563.52 332,-588 335.75,-592.38 335.06,-598.49 335.03,-603.38"/>
<polygon fill="red" stroke="red" points="332.26,-605.52 341,-611.5 337.9,-601.37 332.26,-605.52"/>
</g>
<!-- Node0x562a0f221610 -->
<g id="node12" class="node">
<title>Node0x562a0f221610</title>
<path fill="#333333" stroke="#e6e6e6" d="M290.5,-471C290.5,-471 385.5,-471 385.5,-471 391.5,-471 397.5,-477 397.5,-483 397.5,-483 397.5,-528 397.5,-528 397.5,-534 391.5,-540 385.5,-540 385.5,-540 290.5,-540 290.5,-540 284.5,-540 278.5,-534 278.5,-528 278.5,-528 278.5,-483 278.5,-483 278.5,-477 284.5,-471 290.5,-471"/>
<text text-anchor="middle" x="338" y="-524.8" font-family="Times,serif" font-size="14.00" fill="#e6e6e6">Constant&lt;&#45;1&gt;</text>
<polyline fill="none" stroke="#e6e6e6" points="278.5,-517 397.5,-517 "/>
<text text-anchor="middle" x="338" y="-501.8" font-family="Times,serif" font-size="14.00" fill="#e6e6e6">t11</text>
<polyline fill="none" stroke="#e6e6e6" points="278.5,-494 397.5,-494 "/>
<text text-anchor="middle" x="338" y="-478.8" font-family="Times,serif" font-size="14.00" fill="#e6e6e6">i1</text>
</g>
<!-- Node0x562a0f221680 -->
<g id="node13" class="node">
<title>Node0x562a0f221680</title>
<path fill="#333333" stroke="#e6e6e6" d="M220,-330.5C220,-330.5 250,-330.5 250,-330.5 256,-330.5 262,-336.5 262,-342.5 262,-342.5 262,-410.5 262,-410.5 262,-416.5 256,-422.5 250,-422.5 250,-422.5 220,-422.5 220,-422.5 214,-422.5 208,-416.5 208,-410.5 208,-410.5 208,-342.5 208,-342.5 208,-336.5 214,-330.5 220,-330.5"/>
<text text-anchor="middle" x="221.5" y="-407.3" font-family="Times,serif" font-size="14.00" fill="#e6e6e6">0</text>
<polyline fill="none" stroke="#e6e6e6" points="235,-399.5 235,-422.5 "/>
<text text-anchor="middle" x="248.5" y="-407.3" font-family="Times,serif" font-size="14.00" fill="#e6e6e6">1</text>
<polyline fill="none" stroke="#e6e6e6" points="208,-399.5 262,-399.5 "/>
<text text-anchor="middle" x="235" y="-384.3" font-family="Times,serif" font-size="14.00" fill="#e6e6e6">xor</text>
<polyline fill="none" stroke="#e6e6e6" points="208,-376.5 262,-376.5 "/>
<text text-anchor="middle" x="235" y="-361.3" font-family="Times,serif" font-size="14.00" fill="#e6e6e6">t12</text>
<polyline fill="none" stroke="#e6e6e6" points="208,-353.5 262,-353.5 "/>
<text text-anchor="middle" x="235" y="-338.3" font-family="Times,serif" font-size="14.00" fill="#e6e6e6">i1</text>
</g>
<!-- Node0x562a0f221680&#45;&gt;Node0x562a0f2215a0 -->
<g id="edge12" class="edge">
<title>Node0x562a0f221680:s0&#45;&gt;Node0x562a0f2215a0:d0</title>
<path fill="none" stroke="#e6e6e6" d="M221,-423C221,-435 221,-440.25 221,-448.88"/>
<polygon fill="#e6e6e6" stroke="#e6e6e6" points="217.5,-449 221,-459 224.5,-449 217.5,-449"/>
</g>
<!-- Node0x562a0f221680&#45;&gt;Node0x562a0f221610 -->
<g id="edge13" class="edge">
<title>Node0x562a0f221680:s1&#45;&gt;Node0x562a0f221610:d0</title>
<path fill="none" stroke="#e6e6e6" d="M263,-411.5C275.75,-411.5 266.97,-456.14 270.81,-474.63"/>
<polygon fill="#e6e6e6" stroke="#e6e6e6" points="268.07,-476.81 277,-482.5 273.57,-472.48 268.07,-476.81"/>
</g>
<!-- Node0x562a0f2216f0 -->
<g id="node14" class="node">
<title>Node0x562a0f2216f0</title>
<path fill="#333333" stroke="#e6e6e6" d="M292,-342C292,-342 550,-342 550,-342 556,-342 562,-348 562,-354 562,-354 562,-399 562,-399 562,-405 556,-411 550,-411 550,-411 292,-411 292,-411 286,-411 280,-405 280,-399 280,-399 280,-354 280,-354 280,-348 286,-342 292,-342"/>
<text text-anchor="middle" x="421" y="-395.8" font-family="Times,serif" font-size="14.00" fill="#e6e6e6">BasicBlock&lt;if.else 0x562a0f219cc0&gt;</text>
<polyline fill="none" stroke="#e6e6e6" points="280,-388 562,-388 "/>
<text text-anchor="middle" x="421" y="-372.8" font-family="Times,serif" font-size="14.00" fill="#e6e6e6">t13</text>
<polyline fill="none" stroke="#e6e6e6" points="280,-365 562,-365 "/>
<text text-anchor="middle" x="421" y="-349.8" font-family="Times,serif" font-size="14.00" fill="#e6e6e6">ch</text>
</g>
<!-- Node0x562a0f221760 -->
<g id="node15" class="node">
<title>Node0x562a0f221760</title>
<path fill="#333333" stroke="#e6e6e6" d="M208,-201.5C208,-201.5 262,-201.5 262,-201.5 268,-201.5 274,-207.5 274,-213.5 274,-213.5 274,-281.5 274,-281.5 274,-287.5 268,-293.5 262,-293.5 262,-293.5 208,-293.5 208,-293.5 202,-293.5 196,-287.5 196,-281.5 196,-281.5 196,-213.5 196,-213.5 196,-207.5 202,-201.5 208,-201.5"/>
<text text-anchor="middle" x="209" y="-278.3" font-family="Times,serif" font-size="14.00" fill="#e6e6e6">0</text>
<polyline fill="none" stroke="#e6e6e6" points="222,-270.5 222,-293.5 "/>
<text text-anchor="middle" x="235" y="-278.3" font-family="Times,serif" font-size="14.00" fill="#e6e6e6">1</text>
<polyline fill="none" stroke="#e6e6e6" points="248,-270.5 248,-293.5 "/>
<text text-anchor="middle" x="261" y="-278.3" font-family="Times,serif" font-size="14.00" fill="#e6e6e6">2</text>
<polyline fill="none" stroke="#e6e6e6" points="196,-270.5 274,-270.5 "/>
<text text-anchor="middle" x="235" y="-255.3" font-family="Times,serif" font-size="14.00" fill="#e6e6e6">brcond</text>
<polyline fill="none" stroke="#e6e6e6" points="196,-247.5 274,-247.5 "/>
<text text-anchor="middle" x="235" y="-232.3" font-family="Times,serif" font-size="14.00" fill="#e6e6e6">t14</text>
<polyline fill="none" stroke="#e6e6e6" points="196,-224.5 274,-224.5 "/>
<text text-anchor="middle" x="235" y="-209.3" font-family="Times,serif" font-size="14.00" fill="#e6e6e6">ch</text>
</g>
<!-- Node0x562a0f221760&#45;&gt;Node0x562a0f19ff30 -->
<g id="edge14" class="edge">
<title>Node0x562a0f221760:s0&#45;&gt;Node0x562a0f19ff30:d0</title>
<path fill="none" stroke="red" stroke-dasharray="5,2" d="M195,-282.5C63.68,-282.5 0,-373.18 0,-504.5 0,-504.5 0,-504.5 0,-764.5 0,-842.51 4.29,-862.39 19,-939 21.37,-951.36 25.89,-956.12 27.94,-964.93"/>
<polygon fill="red" stroke="red" points="24.47,-965.42 29,-975 31.44,-964.69 24.47,-965.42"/>
</g>
<!-- Node0x562a0f221760&#45;&gt;Node0x562a0f221680 -->
<g id="edge15" class="edge">
<title>Node0x562a0f221760:s1&#45;&gt;Node0x562a0f221680:d0</title>
<path fill="none" stroke="#e6e6e6" d="M235,-294C235,-306 235,-311.25 235,-319.88"/>
<polygon fill="#e6e6e6" stroke="#e6e6e6" points="231.5,-320 235,-330 238.5,-320 231.5,-320"/>
</g>
<!-- Node0x562a0f221760&#45;&gt;Node0x562a0f2216f0 -->
<g id="edge16" class="edge">
<title>Node0x562a0f221760:s2&#45;&gt;Node0x562a0f2216f0:d0</title>
<path fill="none" stroke="red" stroke-dasharray="5,2" d="M275,-282.5C287.35,-282.5 273.2,-325.83 273.95,-344.79"/>
<polygon fill="red" stroke="red" points="270.96,-346.6 279,-353.5 277.01,-343.09 270.96,-346.6"/>
</g>
<!-- Node0x562a0f2217d0 -->
<g id="node16" class="node">
<title>Node0x562a0f2217d0</title>
<path fill="#333333" stroke="#e6e6e6" d="M304.5,-213C304.5,-213 567.5,-213 567.5,-213 573.5,-213 579.5,-219 579.5,-225 579.5,-225 579.5,-270 579.5,-270 579.5,-276 573.5,-282 567.5,-282 567.5,-282 304.5,-282 304.5,-282 298.5,-282 292.5,-276 292.5,-270 292.5,-270 292.5,-225 292.5,-225 292.5,-219 298.5,-213 304.5,-213"/>
<text text-anchor="middle" x="436" y="-266.8" font-family="Times,serif" font-size="14.00" fill="#e6e6e6">BasicBlock&lt;if.then 0x562a0f219bc0&gt;</text>
<polyline fill="none" stroke="#e6e6e6" points="292.5,-259 579.5,-259 "/>
<text text-anchor="middle" x="436" y="-243.8" font-family="Times,serif" font-size="14.00" fill="#e6e6e6">t15</text>
<polyline fill="none" stroke="#e6e6e6" points="292.5,-236 579.5,-236 "/>
<text text-anchor="middle" x="436" y="-220.8" font-family="Times,serif" font-size="14.00" fill="#e6e6e6">ch</text>
</g>
<!-- Node0x562a0f221840 -->
<g id="node17" class="node">
<title>Node0x562a0f221840</title>
<path fill="#333333" stroke="#e6e6e6" d="M320,-72.5C320,-72.5 350,-72.5 350,-72.5 356,-72.5 362,-78.5 362,-84.5 362,-84.5 362,-152.5 362,-152.5 362,-158.5 356,-164.5 350,-164.5 350,-164.5 320,-164.5 320,-164.5 314,-164.5 308,-158.5 308,-152.5 308,-152.5 308,-84.5 308,-84.5 308,-78.5 314,-72.5 320,-72.5"/>
<text text-anchor="middle" x="321.5" y="-149.3" font-family="Times,serif" font-size="14.00" fill="#e6e6e6">0</text>
<polyline fill="none" stroke="#e6e6e6" points="335,-141.5 335,-164.5 "/>
<text text-anchor="middle" x="348.5" y="-149.3" font-family="Times,serif" font-size="14.00" fill="#e6e6e6">1</text>
<polyline fill="none" stroke="#e6e6e6" points="308,-141.5 362,-141.5 "/>
<text text-anchor="middle" x="335" y="-126.3" font-family="Times,serif" font-size="14.00" fill="#e6e6e6">br</text>
<polyline fill="none" stroke="#e6e6e6" points="308,-118.5 362,-118.5 "/>
<text text-anchor="middle" x="335" y="-103.3" font-family="Times,serif" font-size="14.00" fill="#e6e6e6">t16</text>
<polyline fill="none" stroke="#e6e6e6" points="308,-95.5 362,-95.5 "/>
<text text-anchor="middle" x="335" y="-80.3" font-family="Times,serif" font-size="14.00" fill="#e6e6e6">ch</text>
</g>
<!-- Node0x562a0f221840&#45;&gt;Node0x562a0f221760 -->
<g id="edge17" class="edge">
<title>Node0x562a0f221840:s0&#45;&gt;Node0x562a0f221760:d0</title>
<path fill="none" stroke="red" stroke-dasharray="5,2" d="M307,-153.5C304.16,-153.5 289.24,-187.73 280.65,-204.05"/>
<polygon fill="red" stroke="red" points="277.65,-202.24 275,-212.5 283.47,-206.13 277.65,-202.24"/>
</g>
<!-- Node0x562a0f221840&#45;&gt;Node0x562a0f2217d0 -->
<g id="edge18" class="edge">
<title>Node0x562a0f221840:s1&#45;&gt;Node0x562a0f2217d0:d0</title>
<path fill="none" stroke="red" stroke-dasharray="5,2" d="M363,-153.5C397.58,-153.5 309.69,-195.54 287.82,-214.92"/>
<polygon fill="red" stroke="red" points="284.53,-216.11 291,-224.5 291.17,-213.91 284.53,-216.11"/>
</g>
<!-- Node0x0 -->
<g id="node18" class="node">
<title>Node0x0</title>
<ellipse fill="#333333" stroke="#e6e6e6" cx="335" cy="-18" rx="61.19" ry="18"/>
<text text-anchor="middle" x="335" y="-14.3" font-family="Times,serif" font-size="14.00" fill="#e6e6e6">GraphRoot</text>
</g>
<!-- Node0x0&#45;&gt;Node0x562a0f221840 -->
<g id="edge19" class="edge">
<title>Node0x0&#45;&gt;Node0x562a0f221840:d0</title>
<path fill="none" stroke="red" stroke-dasharray="5,2" d="M335,-36.19C335,-43.72 335,-52.9 335,-61.94"/>
<polygon fill="red" stroke="red" points="331.5,-62 335,-72 338.5,-62 331.5,-62"/>
</g>
</g>
</svg>
