<?xml version="1.0" encoding="UTF-8" standalone="no"?>
<!DOCTYPE svg PUBLIC "-//W3C//DTD SVG 1.1//EN"
 "http://www.w3.org/Graphics/SVG/1.1/DTD/svg11.dtd">
<!-- Generated by graphviz version 2.43.0 (0)
 -->
<!-- Title: Scheduling&#45;Units Graph for dag.add: Pages: 1 -->
<svg width="577pt" height="387pt"
 viewBox="0.00 0.00 577.00 387.00" xmlns="http://www.w3.org/2000/svg" xmlns:xlink="http://www.w3.org/1999/xlink">
<g id="graph0" class="graph" transform="scale(1 1) rotate(0) translate(4 383)">
<title>Scheduling&#45;Units Graph for dag.add:</title>
<!-- Node0x561039253890 -->
<g id="node1" class="node">
<title>Node0x561039253890</title>
<path fill="#333333" stroke="#e6e6e6" d="M59,-249.5C59,-249.5 205,-249.5 205,-249.5 211,-249.5 217,-255.5 217,-261.5 217,-261.5 217,-283.5 217,-283.5 217,-289.5 211,-295.5 205,-295.5 205,-295.5 59,-295.5 59,-295.5 53,-295.5 47,-289.5 47,-283.5 47,-283.5 47,-261.5 47,-261.5 47,-255.5 53,-249.5 59,-249.5"/>
<text text-anchor="middle" x="132" y="-280.3" font-family="Times,serif" font-size="14.00" fill="#e6e6e6">SU:0</text>
<polyline fill="none" stroke="#e6e6e6" points="47,-272.5 217,-272.5 "/>
<text text-anchor="middle" x="132" y="-257.3" font-family="Times,serif" font-size="14.00" fill="#e6e6e6">%1:gpr = COPY $x11</text>
</g>
<!-- Node0x561039253998 -->
<g id="node2" class="node">
<title>Node0x561039253998</title>
<path fill="#333333" stroke="#e6e6e6" d="M137,-332.5C137,-332.5 283,-332.5 283,-332.5 289,-332.5 295,-338.5 295,-344.5 295,-344.5 295,-366.5 295,-366.5 295,-372.5 289,-378.5 283,-378.5 283,-378.5 137,-378.5 137,-378.5 131,-378.5 125,-372.5 125,-366.5 125,-366.5 125,-344.5 125,-344.5 125,-338.5 131,-332.5 137,-332.5"/>
<text text-anchor="middle" x="210" y="-363.3" font-family="Times,serif" font-size="14.00" fill="#e6e6e6">SU:1</text>
<polyline fill="none" stroke="#e6e6e6" points="125,-355.5 295,-355.5 "/>
<text text-anchor="middle" x="210" y="-340.3" font-family="Times,serif" font-size="14.00" fill="#e6e6e6">%0:gpr = COPY $x10</text>
</g>
<!-- Node0x561039253aa0 -->
<g id="node3" class="node">
<title>Node0x561039253aa0</title>
<path fill="#333333" stroke="#e6e6e6" d="M247,-249.5C247,-249.5 557,-249.5 557,-249.5 563,-249.5 569,-255.5 569,-261.5 569,-261.5 569,-283.5 569,-283.5 569,-289.5 563,-295.5 557,-295.5 557,-295.5 247,-295.5 247,-295.5 241,-295.5 235,-289.5 235,-283.5 235,-283.5 235,-261.5 235,-261.5 235,-255.5 241,-249.5 247,-249.5"/>
<text text-anchor="middle" x="402" y="-280.3" font-family="Times,serif" font-size="14.00" fill="#e6e6e6">SU:2</text>
<polyline fill="none" stroke="#e6e6e6" points="235,-272.5 569,-272.5 "/>
<text text-anchor="middle" x="402" y="-257.3" font-family="Times,serif" font-size="14.00" fill="#e6e6e6">SD $x0, %0:gpr, 0 :: (store (s64) into %ir.p0)</text>
</g>
<!-- Node0x561039253aa0&#45;&gt;Node0x561039253998 -->
<g id="edge1" class="edge">
<title>Node0x561039253aa0&#45;&gt;Node0x561039253998</title>
<path fill="none" stroke="#e6e6e6" d="M349.79,-295.53C325.66,-305.7 296.85,-317.86 271.66,-328.49"/>
<polygon fill="#e6e6e6" stroke="#e6e6e6" points="270.05,-325.37 262.2,-332.48 272.77,-331.82 270.05,-325.37"/>
</g>
<!-- Node0x561039253ba8 -->
<g id="node4" class="node">
<title>Node0x561039253ba8</title>
<path fill="#333333" stroke="#e6e6e6" d="M59,-166.5C59,-166.5 405,-166.5 405,-166.5 411,-166.5 417,-172.5 417,-178.5 417,-178.5 417,-200.5 417,-200.5 417,-206.5 411,-212.5 405,-212.5 405,-212.5 59,-212.5 59,-212.5 53,-212.5 47,-206.5 47,-200.5 47,-200.5 47,-178.5 47,-178.5 47,-172.5 53,-166.5 59,-166.5"/>
<text text-anchor="middle" x="232" y="-197.3" font-family="Times,serif" font-size="14.00" fill="#e6e6e6">SU:3</text>
<polyline fill="none" stroke="#e6e6e6" points="47,-189.5 417,-189.5 "/>
<text text-anchor="middle" x="232" y="-174.3" font-family="Times,serif" font-size="14.00" fill="#e6e6e6">%3:gpr = LD %1:gpr, 0 :: (load (s64) from %ir.p1)</text>
</g>
<!-- Node0x561039253ba8&#45;&gt;Node0x561039253890 -->
<g id="edge3" class="edge">
<title>Node0x561039253ba8&#45;&gt;Node0x561039253890</title>
<path fill="none" stroke="#e6e6e6" d="M204.67,-212.63C193.1,-222.01 179.47,-233.05 167.16,-243.02"/>
<polygon fill="#e6e6e6" stroke="#e6e6e6" points="164.86,-240.38 159.29,-249.39 169.27,-245.82 164.86,-240.38"/>
</g>
<!-- Node0x561039253ba8&#45;&gt;Node0x561039253aa0 -->
<g id="edge2" class="edge">
<title>Node0x561039253ba8&#45;&gt;Node0x561039253aa0</title>
<path fill="none" stroke="blue" stroke-dasharray="5,2" d="M278.45,-212.63C299.44,-222.63 324.41,-234.53 346.39,-245"/>
<polygon fill="blue" stroke="blue" points="345.07,-248.25 355.6,-249.39 348.08,-241.93 345.07,-248.25"/>
</g>
<!-- Node0x561039253cb0 -->
<g id="node5" class="node">
<title>Node0x561039253cb0</title>
<path fill="#333333" stroke="#e6e6e6" d="M99.5,-83.5C99.5,-83.5 284.5,-83.5 284.5,-83.5 290.5,-83.5 296.5,-89.5 296.5,-95.5 296.5,-95.5 296.5,-117.5 296.5,-117.5 296.5,-123.5 290.5,-129.5 284.5,-129.5 284.5,-129.5 99.5,-129.5 99.5,-129.5 93.5,-129.5 87.5,-123.5 87.5,-117.5 87.5,-117.5 87.5,-95.5 87.5,-95.5 87.5,-89.5 93.5,-83.5 99.5,-83.5"/>
<text text-anchor="middle" x="192" y="-114.3" font-family="Times,serif" font-size="14.00" fill="#e6e6e6">SU:4</text>
<polyline fill="none" stroke="#e6e6e6" points="87.5,-106.5 296.5,-106.5 "/>
<text text-anchor="middle" x="192" y="-91.3" font-family="Times,serif" font-size="14.00" fill="#e6e6e6">%4:gpr = ADDI %3:gpr, 87</text>
</g>
<!-- Node0x561039253cb0&#45;&gt;Node0x561039253ba8 -->
<g id="edge4" class="edge">
<title>Node0x561039253cb0&#45;&gt;Node0x561039253ba8</title>
<path fill="none" stroke="#e6e6e6" d="M202.93,-129.63C207.12,-138.12 211.98,-147.96 216.52,-157.15"/>
<polygon fill="#e6e6e6" stroke="#e6e6e6" points="213.52,-158.98 221.08,-166.39 219.79,-155.88 213.52,-158.98"/>
</g>
<!-- Node0x561039253db8 -->
<g id="node6" class="node">
<title>Node0x561039253db8</title>
<path fill="#333333" stroke="#e6e6e6" d="M12,-0.5C12,-0.5 158,-0.5 158,-0.5 164,-0.5 170,-6.5 170,-12.5 170,-12.5 170,-34.5 170,-34.5 170,-40.5 164,-46.5 158,-46.5 158,-46.5 12,-46.5 12,-46.5 6,-46.5 0,-40.5 0,-34.5 0,-34.5 0,-12.5 0,-12.5 0,-6.5 6,-0.5 12,-0.5"/>
<text text-anchor="middle" x="85" y="-31.3" font-family="Times,serif" font-size="14.00" fill="#e6e6e6">SU:5</text>
<polyline fill="none" stroke="#e6e6e6" points="0,-23.5 170,-23.5 "/>
<text text-anchor="middle" x="85" y="-8.3" font-family="Times,serif" font-size="14.00" fill="#e6e6e6">$x10 = COPY %4:gpr</text>
</g>
<!-- Node0x561039253db8&#45;&gt;Node0x561039253998 -->
<g id="edge6" class="edge">
<title>Node0x561039253db8&#45;&gt;Node0x561039253998</title>
<path fill="none" stroke="blue" stroke-dasharray="5,2" d="M71.24,-46.62C42.32,-96.26 -17.7,-218.22 38,-296 55.98,-321.11 85.38,-335.57 114.82,-343.86"/>
<polygon fill="blue" stroke="blue" points="114.23,-347.32 124.79,-346.43 115.99,-340.54 114.23,-347.32"/>
</g>
<!-- Node0x561039253db8&#45;&gt;Node0x561039253cb0 -->
<g id="edge5" class="edge">
<title>Node0x561039253db8&#45;&gt;Node0x561039253cb0</title>
<path fill="none" stroke="#e6e6e6" d="M114.24,-46.63C126.74,-56.1 141.49,-67.26 154.76,-77.31"/>
<polygon fill="#e6e6e6" stroke="#e6e6e6" points="152.71,-80.15 162.8,-83.39 156.94,-74.57 152.71,-80.15"/>
</g>
</g>
</svg>
